HIERARCHY
ROOT Hip
{
	OFFSET	0.0000	0.0000	0.0000
	CHANNELS 6 Xposition Yposition Zposition Xrotation Yrotation Zrotation
	JOINT LowerSpine
	{
		OFFSET	0.0000	9.0666	-4.9063
		CHANNELS 3 Xrotation Yrotation Zrotation
		JOINT MiddleSpine
		{
			OFFSET	0.0000	8.2739	0.4322
			CHANNELS 3 Xrotation Yrotation Zrotation
			JOINT Chest
			{
				OFFSET	0.0000	10.2381	-2.2789
				CHANNELS 3 Xrotation Yrotation Zrotation
				JOINT Neck
				{
					OFFSET	0.0000	23.0710	-0.4798
					CHANNELS 3 Xrotation Yrotation Zrotation
					JOINT Head
					{
						OFFSET	0.0000	13.0285	3.5437
						CHANNELS 3 Xrotation Yrotation Zrotation
						End Site
						{
							OFFSET	0.0001	18.2042	0.5434
						}
					}
				}
				JOINT LClavicle
				{
					OFFSET	2.3292	22.2647	7.6280
					CHANNELS 3 Xrotation Yrotation Zrotation
					JOINT LShoulder
					{
						OFFSET	13.6076	3.1936	-5.1675
						CHANNELS 3 Xrotation Yrotation Zrotation
						JOINT LForearm
						{
							OFFSET	28.9052	-0.1027	-0.2505
							CHANNELS 3 Xrotation Yrotation Zrotation
							JOINT LHand
							{
								OFFSET	24.1130	0.0700	-0.1444
								CHANNELS 3 Xrotation Yrotation Zrotation
								JOINT LFinger1
								{
									OFFSET	9.3455	0.8173	2.5957
									CHANNELS 3 Xrotation Yrotation Zrotation
									JOINT LFinger11
									{
										OFFSET	3.4957	-0.8524	0.6160
										CHANNELS 3 Xrotation Yrotation Zrotation
										JOINT LFinger12
										{
											OFFSET	2.3864	-0.5822	0.4207
											CHANNELS 3 Xrotation Yrotation Zrotation
											End Site
											{
												OFFSET	1.6982	-0.5069	0.2755
											}
										}
									}
								}
								JOINT LFinger2
								{
									OFFSET	9.4850	0.9439	0.2260
									CHANNELS 3 Xrotation Yrotation Zrotation
									JOINT LFinger21
									{
										OFFSET	4.3222	0.0120	-0.0255
										CHANNELS 3 Xrotation Yrotation Zrotation
										JOINT LFinger22
										{
											OFFSET	2.3957	0.0073	-0.0146
											CHANNELS 3 Xrotation Yrotation Zrotation
											End Site
											{
												OFFSET	2.1519	-0.1519	0.0029
											}
										}
									}
								}
								JOINT LFinger3
								{
									OFFSET	8.9890	0.6298	-2.1266
									CHANNELS 3 Xrotation Yrotation Zrotation
									JOINT LFinger31
									{
										OFFSET	3.9220	-0.1986	-0.2455
										CHANNELS 3 Xrotation Yrotation Zrotation
										JOINT LFinger32
										{
											OFFSET	2.2349	-0.1124	-0.1405
											CHANNELS 3 Xrotation Yrotation Zrotation
											End Site
											{
												OFFSET	1.9761	-0.2430	-0.0934
											}
										}
									}
								}
								JOINT LFinger4
								{
									OFFSET	8.3414	-0.6339	-3.6727
									CHANNELS 3 Xrotation Yrotation Zrotation
									JOINT LFinger41
									{
										OFFSET	2.4124	-0.5031	-0.6659
										CHANNELS 3 Xrotation Yrotation Zrotation
										JOINT LFinger42
										{
											OFFSET	1.7690	-0.3684	-0.4886
											CHANNELS 3 Xrotation Yrotation Zrotation
											End Site
											{
												OFFSET	1.5701	-0.4314	-0.3602
											}
										}
									}
								}
								JOINT LFinger0
								{
									OFFSET	1.9332	-1.4632	1.4655
									CHANNELS 3 Xrotation Yrotation Zrotation
									JOINT LFinger01
									{
										OFFSET	3.5994	-1.1822	2.7138
										CHANNELS 3 Xrotation Yrotation Zrotation
										JOINT LFinger02
										{
											OFFSET	2.3702	-0.8481	1.7076
											CHANNELS 3 Xrotation Yrotation Zrotation
											End Site
											{
												OFFSET	1.7429	-0.6000	1.1935
											}
										}
									}
								}
							}
						}
					}
				}
				JOINT RClavicle
				{
					OFFSET	-2.3292	22.2647	7.6280
					CHANNELS 3 Xrotation Yrotation Zrotation
					JOINT RShoulder
					{
						OFFSET	-13.6100	3.1941	-5.1684
						CHANNELS 3 Xrotation Yrotation Zrotation
						JOINT RForearm
						{
							OFFSET	-28.9052	-0.1026	-0.2505
							CHANNELS 3 Xrotation Yrotation Zrotation
							JOINT RHand
							{
								OFFSET	-24.1130	0.0700	-0.1444
								CHANNELS 3 Xrotation Yrotation Zrotation
								JOINT RFinger1
								{
									OFFSET	-9.3455	0.8173	2.5957
									CHANNELS 3 Xrotation Yrotation Zrotation
									JOINT RFinger11
									{
										OFFSET	-3.4957	-0.8524	0.6160
										CHANNELS 3 Xrotation Yrotation Zrotation
										JOINT RFinger12
										{
											OFFSET	-2.3864	-0.5822	0.4207
											CHANNELS 3 Xrotation Yrotation Zrotation
											End Site
											{
												OFFSET	-1.6982	-0.5069	0.2755
											}
										}
									}
								}
								JOINT RFinger2
								{
									OFFSET	-9.4850	0.9439	0.2260
									CHANNELS 3 Xrotation Yrotation Zrotation
									JOINT RFinger21
									{
										OFFSET	-4.3222	0.0121	-0.0255
										CHANNELS 3 Xrotation Yrotation Zrotation
										JOINT RFinger22
										{
											OFFSET	-2.3957	0.0073	-0.0146
											CHANNELS 3 Xrotation Yrotation Zrotation
											End Site
											{
												OFFSET	-2.1519	-0.1519	0.0029
											}
										}
									}
								}
								JOINT RFinger3
								{
									OFFSET	-8.9890	0.6298	-2.1266
									CHANNELS 3 Xrotation Yrotation Zrotation
									JOINT RFinger31
									{
										OFFSET	-3.9220	-0.1986	-0.2455
										CHANNELS 3 Xrotation Yrotation Zrotation
										JOINT RFinger32
										{
											OFFSET	-2.2349	-0.1124	-0.1405
											CHANNELS 3 Xrotation Yrotation Zrotation
											End Site
											{
												OFFSET	-1.9761	-0.2429	-0.0934
											}
										}
									}
								}
								JOINT RFinger4
								{
									OFFSET	-8.3414	-0.6339	-3.6727
									CHANNELS 3 Xrotation Yrotation Zrotation
									JOINT RFinger41
									{
										OFFSET	-2.4124	-0.5031	-0.6659
										CHANNELS 3 Xrotation Yrotation Zrotation
										JOINT RFinger42
										{
											OFFSET	-1.7690	-0.3684	-0.4886
											CHANNELS 3 Xrotation Yrotation Zrotation
											End Site
											{
												OFFSET	-1.5701	-0.4314	-0.3602
											}
										}
									}
								}
								JOINT RFinger0
								{
									OFFSET	-1.9332	-1.4632	1.4655
									CHANNELS 3 Xrotation Yrotation Zrotation
									JOINT RFinger01
									{
										OFFSET	-3.5994	-1.1822	2.7138
										CHANNELS 3 Xrotation Yrotation Zrotation
										JOINT RFinger02
										{
											OFFSET	-2.3702	-0.8481	1.7076
											CHANNELS 3 Xrotation Yrotation Zrotation
											End Site
											{
												OFFSET	-1.7429	-0.6000	1.1935
											}
										}
									}
								}
							}
						}
					}
				}
			}
		}
	}
	JOINT RThigh
	{
		OFFSET	-9.6990	4.0984	-0.7995
		CHANNELS 3 Xrotation Yrotation Zrotation
		JOINT RShin
		{
			OFFSET	-0.7761	-42.1862	0.0000
			CHANNELS 3 Xrotation Yrotation Zrotation
			JOINT RFoot
			{
				OFFSET	0.0000	-41.4242	0.0000
				CHANNELS 3 Xrotation Yrotation Zrotation
				JOINT RToe
				{
					OFFSET	0.0000	-4.5529	9.5207
					CHANNELS 3 Xrotation Yrotation Zrotation
					End Site
					{
						OFFSET	0.0000	0.0000	6.3871
					}
				}
			}
		}
	}
	JOINT LThigh
	{
		OFFSET	9.6989	4.0986	-0.7995
		CHANNELS 3 Xrotation Yrotation Zrotation
		JOINT LShin
		{
			OFFSET	0.7761	-42.1865	0.0000
			CHANNELS 3 Xrotation Yrotation Zrotation
			JOINT LFoot
			{
				OFFSET	0.0000	-41.4242	0.0000
				CHANNELS 3 Xrotation Yrotation Zrotation
				JOINT LToe
				{
					OFFSET	0.0000	-4.5529	9.5207
					CHANNELS 3 Xrotation Yrotation Zrotation
					End Site
					{
						OFFSET	0.0000	0.0000	6.3871
					}
				}
			}
		}
	}
}
MOTION
Frames:	6
Frame Time: 0.0333333000
	-13.2131	84.8248	58.2711	-10.909860	-22.499950	-0.009137	0.000000	0.000000	0.000000	3.208685	-0.800301	-0.237810	10.690050	-2.709320	-0.614658	0.000000	0.000000	0.000000	0.000000	0.000000	0.000000	0.000000	0.000000	-14.478700	19.351080	-20.646040	-57.704500	3.462774	-19.763220	-1.872203	0.000000	0.000000	0.000000	0.000000	0.000000	0.000000	0.000000	0.000000	0.000000	0.000000	0.000000	0.000000	0.000000	0.000000	0.000000	0.000000	0.000000	0.000000	0.000000	0.000000	0.000000	0.000000	0.000000	0.000000	0.000000	0.000000	0.000000	0.000000	0.000000	0.000000	0.000000	0.000000	0.000000	0.000000	0.000000	0.000000	0.000000	0.000000	0.000000	0.000000	0.000000	0.000000	0.000000	0.000000	0.000000	0.000000	0.000000	0.000000	0.000000	0.000000	17.370600	0.288444	9.767163	69.727470	-24.488010	22.629550	-0.072309	0.000000	0.000000	0.000000	0.000000	0.000000	0.000000	0.000000	0.000000	0.000000	0.000000	0.000000	0.000000	0.000000	0.000000	0.000000	0.000000	0.000000	0.000000	0.000000	0.000000	0.000000	0.000000	0.000000	0.000000	0.000000	0.000000	0.000000	0.000000	0.000000	0.000000	0.000000	0.000000	0.000000	0.000000	0.000000	0.000000	0.000000	0.000000	0.000000	0.000000	0.000000	0.000000	0.000000	0.000000	0.000000	0.000000	0.000000	0.000000	5.222762	-3.752487	-7.349814	23.985080	-3.423768	1.487358	-20.536670	-2.043513	-1.489025	0.000000	0.000000	0.000000	11.011330	-0.353509	-7.583284	15.108980	0.443300	-0.082189	-14.058450	13.260870	8.507360	0.000001	0.000000	0.000000
	-14.0234	85.2169	58.2913	-11.674170	-22.516050	-0.550263	0.000000	0.000000	0.000000	2.933553	-0.661586	-0.053405	9.779722	-2.209829	-0.044839	0.000000	0.000000	0.000000	0.000000	0.000000	0.000000	0.000000	0.000000	-14.947950	17.464990	-23.792970	-57.650970	3.057781	-19.921940	-1.513226	0.000000	0.000000	0.000000	0.000000	0.000000	0.000000	0.000000	0.000000	0.000000	0.000000	0.000000	0.000000	0.000000	0.000000	0.000000	0.000000	0.000000	0.000000	0.000000	0.000000	0.000000	0.000000	0.000000	0.000000	0.000000	0.000000	0.000000	0.000000	0.000000	0.000000	0.000000	0.000000	0.000000	0.000000	0.000000	0.000000	0.000000	0.000000	0.000000	0.000000	0.000000	0.000000	0.000000	0.000000	0.000000	0.000000	0.000000	0.000000	0.000000	0.000000	17.391760	-0.175604	5.921168	69.540620	-27.620290	21.729240	-0.073173	0.000000	0.000000	0.000000	0.000000	0.000000	0.000000	0.000000	0.000000	0.000000	0.000000	0.000000	0.000000	0.000000	0.000000	0.000000	0.000000	0.000000	0.000000	0.000000	0.000000	0.000000	0.000000	0.000000	0.000000	0.000000	0.000000	0.000000	0.000000	0.000000	0.000000	0.000000	0.000000	0.000000	0.000000	0.000000	0.000000	0.000000	0.000000	0.000000	0.000000	0.000000	0.000000	0.000000	0.000000	0.000000	0.000000	0.000000	0.000000	8.698708	-3.000143	-5.804774	19.951700	-2.609525	0.912004	-19.565430	-3.371958	-2.387803	0.000000	0.000000	0.000000	12.519790	0.023377	-6.692336	14.100450	0.767787	-0.162302	-12.989080	12.334290	7.735036	0.000001	0.000000	0.000000
	-14.7979	85.3960	58.0265	-12.315910	-22.592940	-1.336106	0.000000	0.000000	0.000000	2.796004	-0.513284	0.080491	9.324762	-1.691142	0.364355	0.000000	0.000000	0.000000	0.000000	0.000000	0.000000	0.000000	0.000000	-15.322080	14.610560	-24.663390	-58.547550	0.882976	-22.088260	-0.599309	0.000000	0.000000	0.000000	0.000000	0.000000	0.000000	0.000000	0.000000	0.000000	0.000000	0.000000	0.000000	0.000000	0.000000	0.000000	0.000000	0.000000	0.000000	0.000000	0.000000	0.000000	0.000000	0.000000	0.000000	0.000000	0.000000	0.000000	0.000000	0.000000	0.000000	0.000000	0.000000	0.000000	0.000000	0.000000	0.000000	0.000000	0.000000	0.000000	0.000000	0.000000	0.000000	0.000000	0.000000	0.000000	0.000000	0.000000	0.000000	0.000000	0.000000	17.150480	-0.704340	2.975225	68.573620	-29.722520	21.143150	-0.130947	0.000000	0.000000	0.000000	0.000000	0.000000	0.000000	0.000000	0.000000	0.000000	0.000000	0.000000	0.000000	0.000000	0.000000	0.000000	0.000000	0.000000	0.000000	0.000000	0.000000	0.000000	0.000000	0.000000	0.000000	0.000000	0.000000	0.000000	0.000000	0.000000	0.000000	0.000000	0.000000	0.000000	0.000000	0.000000	0.000000	0.000000	0.000000	0.000000	0.000000	0.000000	0.000000	0.000000	0.000000	0.000000	0.000000	0.000000	0.000000	10.587970	-3.590106	-4.542937	17.827360	-3.155891	0.954771	-18.772380	-2.465442	-1.715791	0.000000	0.000000	0.000000	13.273190	0.940888	-5.474648	14.239730	1.546941	-0.360753	-12.636750	10.187980	6.340635	0.000001	0.000000	0.000000
	-15.8140	85.3377	57.4532	-12.994620	-23.101230	-2.719451	0.000000	0.000000	0.000000	2.808696	-0.380251	0.195150	9.368502	-1.226415	0.720093	0.000000	0.000000	0.000000	0.000000	0.000000	0.000000	0.000000	0.000000	-15.530500	10.699450	-23.122940	-59.830880	-3.525316	-24.689910	-0.068894	0.000000	0.000000	0.000000	0.000000	0.000000	0.000000	0.000000	0.000000	0.000000	0.000000	0.000000	0.000000	0.000000	0.000000	0.000000	0.000000	0.000000	0.000000	0.000000	0.000000	0.000000	0.000000	0.000000	0.000000	0.000000	0.000000	0.000000	0.000000	0.000000	0.000000	0.000000	0.000000	0.000000	0.000000	0.000000	0.000000	0.000000	0.000000	0.000000	0.000000	0.000000	0.000000	0.000000	0.000000	0.000000	0.000000	0.000000	0.000000	0.000000	0.000000	16.723700	-1.094780	3.421905	66.890840	-28.894430	20.838560	-0.146268	0.000000	0.000000	0.000000	0.000000	0.000000	0.000000	0.000000	0.000000	0.000000	0.000000	0.000000	0.000000	0.000000	0.000000	0.000000	0.000000	0.000000	0.000000	0.000000	0.000000	0.000000	0.000000	0.000000	0.000000	0.000000	0.000000	0.000000	0.000000	0.000000	0.000000	0.000000	0.000000	0.000000	0.000000	0.000000	0.000000	0.000000	0.000000	0.000000	0.000000	0.000000	0.000000	0.000000	0.000000	0.000000	0.000000	0.000000	0.000000	11.630210	-3.285666	-2.700865	17.110500	-2.982581	0.868478	-18.865100	-1.984616	-1.386739	0.000000	0.000000	0.000000	13.345010	1.944162	-3.544215	15.271140	2.312774	-0.594890	-13.193880	7.326161	4.632246	0.000001	0.000000	0.000000
	-17.0002	85.1587	56.5965	-13.347060	-24.132840	-4.365870	0.000000	0.000000	0.000000	2.788069	-0.284754	0.306382	9.299706	-0.889123	1.072919	0.000000	0.000000	0.000000	0.000000	0.000000	0.000000	0.000000	0.000000	-15.575950	7.044267	-21.171620	-60.637550	-7.972945	-26.442240	0.026078	0.000000	0.000000	0.000000	0.000000	0.000000	0.000000	0.000000	0.000000	0.000000	0.000000	0.000000	0.000000	0.000000	0.000000	0.000000	0.000000	0.000000	0.000000	0.000000	0.000000	0.000000	0.000000	0.000000	0.000000	0.000000	0.000000	0.000000	0.000000	0.000000	0.000000	0.000000	0.000000	0.000000	0.000000	0.000000	0.000000	0.000000	0.000000	0.000000	0.000000	0.000000	0.000000	0.000000	0.000000	0.000000	0.000000	0.000000	0.000000	0.000000	0.000000	16.282030	-1.451753	7.521828	65.504710	-25.672750	20.669080	-0.134175	0.000000	0.000000	0.000000	0.000000	0.000000	0.000000	0.000000	0.000000	0.000000	0.000000	0.000000	0.000000	0.000000	0.000000	0.000000	0.000000	0.000000	0.000000	0.000000	0.000000	0.000000	0.000000	0.000000	0.000000	0.000000	0.000000	0.000000	0.000000	0.000000	0.000000	0.000000	0.000000	0.000000	0.000000	0.000000	0.000000	0.000000	0.000000	0.000000	0.000000	0.000000	0.000000	0.000000	0.000000	0.000000	0.000000	0.000000	0.000000	11.845500	-2.060674	-0.395155	17.036230	-2.030712	0.578666	-18.921020	-3.349092	-2.343707	0.000000	0.000000	0.000000	12.283390	2.279871	-1.252907	17.393110	2.413606	-0.691024	-14.655570	5.426867	3.508691	0.000001	0.000000	0.000000
	-18.2281	84.9078	55.5420	-13.160970	-25.384880	-5.863317	0.000000	0.000000	0.000000	2.645967	-0.217074	0.390696	8.825593	-0.651822	1.338618	0.000000	0.000000	0.000000	0.000000	0.000000	0.000000	0.000000	0.000000	-15.452790	4.871382	-20.407920	-60.577160	-10.245130	-28.163810	0.061882	0.000000	0.000000	0.000000	0.000000	0.000000	0.000000	0.000000	0.000000	0.000000	0.000000	0.000000	0.000000	0.000000	0.000000	0.000000	0.000000	0.000000	0.000000	0.000000	0.000000	0.000000	0.000000	0.000000	0.000000	0.000000	0.000000	0.000000	0.000000	0.000000	0.000000	0.000000	0.000000	0.000000	0.000000	0.000000	0.000000	0.000000	0.000000	0.000000	0.000000	0.000000	0.000000	0.000000	0.000000	0.000000	0.000000	0.000000	0.000000	0.000000	0.000000	15.877780	-1.282574	14.247340	64.474970	-20.573600	21.084500	-0.064875	0.000000	0.000000	0.000000	0.000000	0.000000	0.000000	0.000000	0.000000	0.000000	0.000000	0.000000	0.000000	0.000000	0.000000	0.000000	0.000000	0.000000	0.000000	0.000000	0.000000	0.000000	0.000000	0.000000	0.000000	0.000000	0.000000	0.000000	0.000000	0.000000	0.000000	0.000000	0.000000	0.000000	0.000000	0.000000	0.000000	0.000000	0.000000	0.000000	0.000000	0.000000	0.000000	0.000000	0.000000	0.000000	0.000000	0.000000	0.000000	11.130130	-1.237781	1.902698	17.498380	-1.474331	0.413174	-18.430040	-5.058110	-3.506043	0.000000	0.000000	0.000000	10.354040	1.870225	1.018140	20.172520	1.861054	-0.593477	-16.762230	5.785570	3.873379	0.000001	0.000000	0.000000
